<?xml version="1.0" encoding="UTF-8" standalone="no"?>
<!-- Created with Inkscape (http://www.inkscape.org/) -->

<svg
   version="1.1"
   id="svg9"
   width="1181.3333"
   height="1440"
   viewBox="0 0 1181.3333 1440"
   sodipodi:docname="vector art.svg"
   inkscape:export-filename="vector art.svg"
   inkscape:export-xdpi="96"
   inkscape:export-ydpi="96"
   inkscape:version="1.2.1 (9c6d41e410, 2022-07-14)"
   xmlns:inkscape="http://www.inkscape.org/namespaces/inkscape"
   xmlns:sodipodi="http://sodipodi.sourceforge.net/DTD/sodipodi-0.dtd"
   xmlns="http://www.w3.org/2000/svg"
   xmlns:svg="http://www.w3.org/2000/svg">
  <defs
     id="defs13" />
  <sodipodi:namedview
     id="namedview11"
     pagecolor="#ffffff"
     bordercolor="#000000"
     borderopacity="0.25"
     inkscape:showpageshadow="2"
     inkscape:pageopacity="0.0"
     inkscape:pagecheckerboard="0"
     inkscape:deskcolor="#d1d1d1"
     showgrid="false"
     inkscape:zoom="0.15795031"
     inkscape:cx="591.95831"
     inkscape:cy="1177.5855"
     inkscape:window-width="1920"
     inkscape:window-height="1013"
     inkscape:window-x="-9"
     inkscape:window-y="-9"
     inkscape:window-maximized="1"
     inkscape:current-layer="layer1">
    <inkscape:grid
       type="xygrid"
       id="grid79314" />
  </sodipodi:namedview>
  <g
     inkscape:groupmode="layer"
     id="layer1"
     inkscape:label="full"
     style="display:inline">
    <path
       style="display:inline;fill:#bbbbd2;fill-opacity:1;stroke:#000000;stroke-opacity:0"
       d="m 387.74648,154.58756 10.54007,-3.51335 42.79903,-2.23577 24.91287,104.12302 c 0,0 62.28218,-17.24737 80.48774,-18.20556 l 10.54006,-2.87456 c 0,0 30.3426,-2.55517 39.28568,-1.91637 l 38.64689,-0.3194 7.34611,2.87456 c 0,0 35.13353,1.91638 64.51794,9.26248 0,0 56.21366,17.56677 69.62829,24.91287 13.41462,7.3461 40.88266,27.78743 40.88266,27.78743 l 26.19045,-161.93366 35.45293,-1.27758 11.49825,1.91637 -18.52495,212.3982 c 0,0 14.6922,26.82925 18.52495,42.79904 l 21.08012,3.19395 15.331,-0.31939 c 0,0 11.17885,0.95819 14.05342,11.49825 2.87456,10.54006 7.66549,67.39251 2.55516,85.59807 -5.11033,18.20556 -21.39952,16.92797 -21.39952,16.92797 h -8.30429 c 0,0 -2.23577,4.15215 -9.26247,4.47154 0,0 -5.74913,33.21717 -7.9849,32.89777 -2.23577,-0.3194 -15.331,35.13354 -44.07662,54.93608 -28.74562,19.80253 -65.79553,23.95468 -65.79553,23.95468 l -130.95227,2.55517 25.87106,4.47154 106.0394,0.31939 7.02671,3.83275 35.45293,3.51336 c 0,0 18.52495,2.55516 27.78743,9.90127 9.26248,7.3461 20.12194,25.23226 23.63529,37.04991 3.51335,11.81764 11.17885,32.57837 11.17885,32.57837 l 2.55517,11.49825 12.77583,-0.3194 c 0,0 12.77583,5.74912 18.84435,17.56677 6.06852,11.81764 7.9849,70.58647 7.9849,91.98598 0,21.39952 -5.11034,96.45753 -5.11034,96.45753 l -9.26247,87.19501 -6.38792,72.1835 c 0,0 -6.06852,32.8978 -10.85946,50.4645 -4.79093,17.5668 -16.92797,31.9396 -21.39951,35.1336 -4.47155,3.1939 -11.81765,-4.791 -11.81765,-4.791 0,0 -9.26248,-13.734 -8.62368,-45.6736 0.63879,-31.9396 2.87456,-79.2101 2.87456,-79.2101 l 0.63879,-9.5819 -21.39952,71.2253 1.27758,1.9163 -3.83275,7.0267 -35.13353,78.5714 -35.77233,68.3507 c 0,0 -2.87456,3.194 -9.26248,7.6655 -6.38791,4.4715 -49.18695,43.4378 -66.11493,48.2288 0,0 -32.57837,16.2891 -68.98948,18.2055 -36.41112,1.9164 -76.97439,-6.0685 -93.26357,-13.734 -16.28919,-7.6655 -42.47964,-22.0383 -51.42273,-31.9396 l -27.14864,-22.6771 -10.85945,-9.9012 c 0,0 -55.89427,-90.7084 -59.40762,-102.5261 0,0 -15.46385,-29.1751 -15.46385,-31.4336 l -5.42033,-4.7428 2.03263,-1.5809 c 0,0 2.25847,-5.872 -2.03263,-9.0339 0,0 0,6.0979 -2.48431,18.2936 -2.48432,12.1957 -7.6788,30.2635 -16.71268,31.8444 -9.03387,1.581 -20.77791,-18.5194 -20.77791,-18.5194 0,0 -11.29235,-23.9398 -15.13175,-43.1368 -3.83939,-19.197 -13.09912,-92.5972 -13.09912,-92.5972 l -10.6148,-103.21207 -2.93601,-70.23839 0.90338,-60.07528 c 0,0 1.58093,-25.9724 7.6788,-33.42535 6.09787,-7.45295 19.64868,-15.58344 26.87578,-14.22835 l 15.13175,-44.04015 10.38896,-19.64869 c 0,0 4.74278,-7.00125 6.32371,-8.13049 0,0 10.84065,-12.64742 30.94103,-16.93852 20.10038,-4.29109 43.8143,-3.61355 43.8143,-3.61355 l 4.74279,-3.3877 21.00376,-2.48432 31.84442,-0.45169 26.42409,-1.35508 15.13174,-2.48432 c 0,0 -70.69008,0 -94.62986,-3.8394 0,0 -26.64994,-1.12923 -37.26474,-6.09786 -10.61481,-4.96864 -27.77917,-11.96989 -39.29737,-24.39147 -11.51819,-12.42158 -26.19824,-22.81054 -34.55458,-45.16939 -8.35633,-22.35884 -7.2271,-30.03764 -7.2271,-30.03764 l -2.03262,-1.80677 c 0,0 -13.77666,2.48431 -20.32622,-4.96864 -6.54956,-7.45294 -11.74404,-29.58594 -11.74404,-29.58594 l -2.03263,-29.3601 c 0,0 0,-15.35759 4.96864,-26.42409 4.96863,-11.0665 9.48557,-15.13175 15.58343,-16.93852 6.09787,-1.80678 17.61606,-2.03263 17.61606,-2.03263 l 4.51694,-1.12923 c 0,0 7.2271,-40.20075 29.58595,-65.9473 22.35885,-25.74655 39.74906,-40.20076 39.74906,-40.20076 l 19.87453,-13.77666 z"
       id="path177"
       sodipodi:insensitive="true"
       inkscape:label="body" />
    <g
       id="g77049"
       inkscape:label="face"
       sodipodi:insensitive="true"
       style="display:inline">
      <path
         style="display:inline;fill:#254ec1;fill-opacity:0.454106;stroke:#000000;stroke-opacity:0"
         d="m 426.399,614.75533 c 0,0 335.15684,-5.42032 359.09661,0 0,0 10.84065,5.87202 -14.00251,7.6788 -24.84316,1.80677 -79.04642,1.80677 -79.04642,1.80677 h -28.45672 l 13.55082,4.96864 h 37.49059 l 57.81681,0.90338 14.4542,-0.90338 8.58219,6.7754 c 0,0 -100.27604,0.4517 -146.8005,-3.16185 -46.52447,-3.61355 -97.56588,-4.96864 -126.92598,-2.71017 -29.3601,2.25847 -92.59724,9.48558 -96.21079,7.22711 -3.61355,-2.25847 1.80678,-5.87202 1.80678,-5.87202 l 20.77792,-2.25847 39.74905,-0.4517 36.13551,-4.06524 c 0,0 -78.59473,4.51694 -98.01756,-9.93727 z"
         id="path53755"
         sodipodi:insensitive="true" />
      <g
         id="g76925"
         style="display:inline"
         sodipodi:insensitive="true">
        <path
           style="display:inline;fill:#1b15ff;fill-opacity:0.647343;stroke:#000000;stroke-opacity:0"
           d="m 914.11074,391.01794 c 0,0 -14.05342,21.00262 1.27758,113.6274 0,0 2.16624,0.91646 6.53461,0.74093 2.3859,-0.0959 6.06262,-0.12131 8.93484,-1.71678 3.85636,-2.14214 9.11631,-5.39654 11.58232,-13.00007 7.6655,-23.63528 -13.45004,50.74243 -10.89488,-69.98918 0.31924,-0.0798 -0.65894,-18.73304 5.44578,-20.45462 4.8808,-1.37643 1.33441,-6.50719 -8.88565,-8.63679 -3.64538,-0.7596 -9.12418,-0.73883 -13.9946,-0.57089 z"
           id="path44472"
           sodipodi:nodetypes="ccssscssc"
           sodipodi:insensitive="true" />
        <path
           style="display:inline;fill:#2630dd;fill-opacity:1;stroke:#000000;stroke-opacity:0"
           d="m 305.66177,403.71627 c 0,0 -27.46804,49.50635 0.95818,109.23336 0,0 -22.3577,7.02671 -30.34259,-26.19045 0,0 -3.86386,-19.89986 -3.84324,-37.32466 0.0116,-9.80374 2.64203,-18.90116 4.48203,-23.04115 5.11033,-11.49824 7.0267,-21.08012 28.74562,-22.6771 z"
           id="path45741"
           sodipodi:nodetypes="cccssc"
           sodipodi:insensitive="true" />
        <path
           style="fill:#617285;fill-opacity:0.454106;stroke:#000000;stroke-opacity:0"
           d="m 885.77165,400.20075 c 0,0 -9.03388,58.26851 5.19447,98.24342 0,0 2.25847,3.83939 3.16186,4.51693 6.53925,7.21733 -2.51006,-1.00821 7.6788,5.64618 2.71016,1.35508 6.09786,0.90339 6.09786,0.90339 0,0 -21.6813,-54.42911 -22.13299,-109.30992 z"
           id="path49077"
           sodipodi:nodetypes="cccccc"
           sodipodi:insensitive="true" />
        <path
           style="fill:#617285;fill-opacity:0.386473;stroke:#000000;stroke-opacity:0"
           d="m 889.53996,388.47218 c 0,0 -4.0038,6.2844 -4.0038,12.03352 0,5.74912 1.70492,25.64245 2.49538,31.03676 0.24561,1.67609 1.19781,11.36113 4.74228,26.44738 3.88488,16.53516 7.5352,29.79459 10.91481,40.16469 1.87336,5.74831 3.72473,10.8536 4.46651,11.0559 l 4.43447,-2.26975 1.39216,-1.86635 1.49718,0.0321 -18.61981,-67.37534 z"
           id="path52619"
           sodipodi:nodetypes="csssscccccc"
           sodipodi:insensitive="true" />
      </g>
      <g
         id="g77014"
         style="display:inline"
         sodipodi:insensitive="true">
        <g
           id="g76893"
           sodipodi:insensitive="true">
          <path
             style="fill:#0006cc;fill-opacity:0.449275;stroke:#000000;stroke-opacity:0"
             d="m 405.62108,282.08281 9.93726,-6.54956 -17.16436,-124.6675 -10.61481,3.61355 z"
             id="path661"
             sodipodi:insensitive="true" />
          <path
             style="display:inline;fill:#0006cc;fill-opacity:0.449275;stroke:#000000;stroke-opacity:0"
             d="m 426.07398,219.10551 17.56677,-3.51335 10.22066,40.56326 -21.08012,8.30429 z"
             id="path3122"
             sodipodi:insensitive="true" />
          <path
             style="display:inline;fill:#0006cc;fill-opacity:0.449275;stroke:#000000;stroke-opacity:0"
             d="m 422.56063,216.86974 21.08012,-3.83275 0.31939,2.87456 -17.88616,3.19396 7.6655,45.03481 -3.83275,1.59697 z"
             id="path3124"
             sodipodi:insensitive="true" />
        </g>
        <g
           id="g76900"
           sodipodi:insensitive="true">
          <path
             style="fill:#0006cc;fill-opacity:0.449275;stroke:#000000;stroke-opacity:0"
             d="m 878.65781,131.27167 -17.56677,202.49693 7.3461,8.94308 4.47154,4.47154 17.88617,-214.63397 z"
             id="path3126"
             sodipodi:insensitive="true" />
          <path
             style="fill:#0006cc;fill-opacity:0.449275;stroke:#000000;stroke-opacity:0"
             d="m 842.24669,201.53874 14.6922,1.91638 -11.17885,114.66308 c 0,0 -14.37281,-15.96979 -19.80254,-16.60858 z"
             id="path3128"
             sodipodi:insensitive="true" />
          <path
             style="fill:#0006cc;fill-opacity:0.449275;stroke:#000000;stroke-opacity:0"
             d="m 842.88548,198.66418 17.24737,1.91637 -11.17885,120.09282 -4.15215,-2.87456 10.85946,-113.06611 -13.41462,-1.59698 z"
             id="path3130"
             inkscape:label="path3130"
             sodipodi:insensitive="true" />
        </g>
        <g
           id="g77026"
           sodipodi:insensitive="true">
          <path
             style="display:inline;fill:#4740b9;fill-opacity:0.681159;stroke:#000000;stroke-opacity:0"
             d="m 553.77666,231.94479 c 0,0 -14.00251,4.29109 -14.00251,8.13049 0,3.8394 13.09913,9.93727 20.55207,9.25973 7.45295,-0.67754 28.68256,-2.03263 36.36136,-4.06525 7.67879,-2.03262 16.48682,-4.51694 19.42284,-5.64617 2.93601,-1.12924 8.58218,-7.45295 10.6148,-8.13049 2.03262,-0.67754 5.87202,-1.12924 5.87202,-1.12924 l 7.6788,2.03263 2.93601,-0.22585 -8.58219,-2.71016 -1.80677,-0.4517 h -11.74404 l -26.42409,0.4517 -14.22836,-0.4517 -3.3877,0.90339 -18.2936,1.58093 z"
             id="path13985"
             sodipodi:insensitive="true" />
          <path
             style="display:inline;fill:#e3e3e3;fill-opacity:0.719807;stroke:#000000;stroke-opacity:0"
             d="m 453.95232,268.30615 c 0,0 15.80929,12.19573 51.4931,9.03388 35.68382,-3.16186 116.98871,-5.87202 116.98871,-5.87202 0,0 58.7202,1.35508 83.56336,5.87202 0,0 5.42033,-4.06525 14.9059,-5.42033 l 9.93726,-14.00251 c 0,0 -11.74404,-2.71016 -18.97114,-2.71016 -7.2271,0 -18.97114,-8.13049 -45.62108,-8.13049 -26.64993,0 -41.10414,-4.96864 -49.23463,-4.96864 -8.13049,0 -19.87453,13.09913 -40.20075,12.19574 -20.32622,-0.90339 -33.42535,0.90339 -39.74906,-7.2271 z"
             id="path3192"
             sodipodi:insensitive="true" />
        </g>
      </g>
      <g
         id="g76912"
         style="display:inline"
         sodipodi:insensitive="true">
        <path
           style="display:inline;fill:#020303;fill-opacity:1;stroke:#000000;stroke-opacity:0"
           d="m 397.49059,295.85947 c 0,0 -37.0389,17.61606 -61.43036,71.81933 -24.39147,54.20326 -18.97115,102.5345 -18.97115,102.5345 0,0 -2.71016,17.16437 20.77792,15.35759 23.48808,-1.80677 75.43287,-5.87202 75.43287,-5.87202 l 191.0665,-5.87202 107.95484,0.90339 71.81932,0.90339 c 0,0 45.62108,10.84065 40.65244,-34.78043 -4.96863,-45.62108 -13.09912,-149.05897 -88.98368,-157.64115 l -68.20578,-1.35509 c 0,0 -240.30113,-1.80677 -270.11292,14.00251 z"
           id="path3190"
           inkscape:label="path3190"
           sodipodi:insensitive="true" />
        <path
           style="display:inline;fill:#3d4957;fill-opacity:1;stroke:#000000;stroke-opacity:0"
           d="m 394.78043,306.24843 c 0,0 -74.52949,49.68633 -69.56086,164.86826 0,0 1.35509,7.2271 16.71268,4.96863 15.35759,-2.25847 74.07779,-5.42033 74.07779,-5.42033 l 162.15809,-4.06524 92.59724,-0.90339 87.17691,2.25847 h 42.00753 c 0,0 17.16437,-2.71016 16.71268,-20.32622 -0.4517,-17.61606 -9.03388,-158.54454 -85.82184,-152.22083 l -70.01254,-0.45169 c 0,0 -200.55207,0.90338 -238.49436,8.13048 z"
           id="path3188"
           sodipodi:insensitive="true" />
        <path
           style="display:inline;fill:#e3e3e3;fill-opacity:0.719807;stroke:#000000;stroke-opacity:0"
           d="m 436.29464,377.04673 c 0,0 2.71487,-23.79499 20.92043,-38.0081 l 18.84435,-1.27759 c 0,0 30.0232,18.36526 11.49825,65.47614 0,0 -5.11033,11.65795 -13.25493,14.05341 -8.14459,2.39547 -19.48314,1.27759 -19.48314,1.27759 0,0 -19.32345,-5.90882 -18.52496,-41.52145 z"
           id="path43380"
           sodipodi:insensitive="true" />
        <path
           style="display:inline;fill:#e3e3e3;fill-opacity:0.719807;stroke:#000000;stroke-opacity:0"
           d="m 622.50239,363.15301 c 0,0 -17.24738,62.60157 35.45293,53.65849 0,0 26.50985,-12.45643 28.10683,-34.81414 1.59698,-22.3577 -0.95819,-53.97789 -41.20206,-50.46453 0,0 -16.28918,2.87456 -22.3577,31.62018 z"
           id="path43386"
           sodipodi:insensitive="true" />
      </g>
      <g
         id="g76917"
         sodipodi:insensitive="true">
        <path
           style="display:inline;fill:#e6e6e6;fill-opacity:0.449275;stroke:#000000;stroke-opacity:0"
           d="m 835.18193,367.2271 c 0,0 10.38896,60.07528 2.25847,84.01506 0,0 18.97114,22.58469 25.29486,48.33124 l 7.29886,-12.97392 3.35366,-6.86701 c 0,0 1.43728,-3.19396 0,-9.26248 -1.43728,-6.06852 -2.07607,-12.45643 -2.07607,-12.45643 l -1.59698,-14.37281 c 0,0 -0.6388,-14.69221 0,-17.88617 0.63879,-3.19395 -2.07608,-11.33855 4.63124,-16.60858 0,0 -31.05749,-44.87151 -39.16404,-41.9189 z"
           id="path3132"
           sodipodi:insensitive="true" />
        <path
           style="display:inline;fill:#e6e6e6;fill-opacity:0.45098;stroke:#000000;stroke-opacity:0"
           d="m 367.14546,421.44274 c 0,0 -11.33855,48.70786 -7.34611,79.21016 l 36.89022,-2.23578 c 0,0 1.43728,-13.09522 14.05341,-12.45643 0,0 -10.85946,-1.27758 0.1597,-45.03481 z"
           id="path40889"
           inkscape:label="path40889"
           sodipodi:insensitive="true" />
        <path
           style="display:inline;fill:#3d3b84;fill-opacity:0.169082;stroke:#000000;stroke-opacity:0"
           d="m 755.23212,288.18068 c 0,0 19.87453,1.35508 37.49059,12.19573 17.61606,10.84065 38.39398,56.46173 41.10414,64.14053 2.71016,7.67879 9.03388,75.43287 4.51694,86.72522 0,0 22.58469,36.13551 23.93977,47.42785 1.35509,11.29235 -43.8143,101.17943 -83.56336,107.05145 -39.74906,5.87202 -151.31744,8.13049 -151.31744,8.13049 l -35.23212,0.45169 h -51.94479 c 0,0 7.67879,-69.10916 36.5872,-105.24467 28.90841,-36.13551 32.97365,-35.23212 32.97365,-35.23212 l 168.9335,1.80678 13.09912,1.80677 c 0,0 34.32874,3.61355 33.42535,-22.133 -0.90339,-25.74655 -6.32372,-154.0276 -70.01255,-167.12672 z"
           id="path43389"
           sodipodi:insensitive="true" />
      </g>
    </g>
    <g
       id="g76938"
       sodipodi:insensitive="true"
       style="display:inline">
      <g
         id="g76971"
         sodipodi:insensitive="true">
        <path
           style="display:inline;fill:#25365e;fill-opacity:0.178744;stroke:#000000;stroke-width:1.9;stroke-dasharray:none;stroke-opacity:0"
           d="m 316.17168,725.23629 c 0,0 -19.58585,69.94948 -7.83434,145.49493 11.75151,75.54545 49.24444,224.39798 49.24444,224.39798 l 6.15555,16.2283 c 0,0 -6.15555,48.6848 -19.02626,50.9232 -12.8707,2.2384 -25.74141,-27.9798 -25.74141,-27.9798 0,0 19.02626,2.2384 21.26465,-16.7879 2.23838,-19.0262 -3.35758,-55.9596 -3.35758,-66.0323 0,-10.0727 -7.27474,-35.8142 -13.4303,-51.48279 C 317.51248,984.89339 301.62219,859.5393 301.62219,859.5393 v -23.50303 c 0,0 -1.11919,-54.84039 0.5596,-59.31716 1.67878,-4.47677 13.98989,-51.48282 13.98989,-51.48282 z"
           id="path75255"
           sodipodi:nodetypes="csccscsssccsc"
           inkscape:label="hand-2"
           sodipodi:insensitive="true" />
        <path
           style="display:inline;fill:#3f3f7d;fill-opacity:0.15942;stroke:#000000;stroke-opacity:0"
           d="m 873.33697,664.22941 c -11.03896,-19.37958 -27.93463,-25.67833 -49.48069,-28.23461 -21.86147,-2.59369 -48.29593,-1.30154 -48.29593,-1.30154 l -235.83366,-1.58277 c 0,0 -61.36176,89.64026 -77.47204,220.83634 -8.82033,71.82949 -3.72158,142.47901 -27.24911,177.18927 -67.02376,98.8804 -69.38423,91.0522 -69.38423,91.0522 0,0 12.93272,7.0467 50.9299,12.154 10.64813,1.4312 34.14236,4.3207 46.39045,5.4732 48.92766,4.604 107.77267,4.8923 154.34107,4.5317 49.85357,-0.3861 112.71391,0.6511 156.36133,-5.8561 14.03627,-2.0926 29.15477,-4.174 39.0448,-7.3722 21.11406,-6.8278 29.34809,-15.2617 29.34809,-15.2617 0,0 15.73636,-37.202 22.48449,-81.8744 7.60686,-50.3573 14.49123,-121.5162 19.45908,-208.16932 1.23071,-21.46697 0.0505,-40.08078 0.10903,-56.98366 0.0441,-12.7374 -0.44913,-16.53565 0.98753,-26.2426 0.48427,-3.27202 3.50238,-8.55004 3.50238,-8.55004 -1.79272,-2.29296 5.84141,-1.58759 6.32789,-8.25343"
           id="path58180"
           sodipodi:nodetypes="csccsscssssscsssssc"
           sodipodi:insensitive="true" />
        <path
           style="display:inline;fill:#000000;fill-opacity:0.15942;stroke:#000000;stroke-opacity:0"
           d="m 449.73612,1267.4718 17.62479,7.2925 43.87581,7.2844 28.35453,2.769 47.61873,1.9794 37.01925,1.2591 29.45735,-1.2591 53.67449,-4.9363 21.36748,-2.3741 9.63656,-3.7691 c 0,0 3.34217,-3.532 6.10633,-6.2158 2.43094,-2.3602 4.12956,-3.6523 6.66043,-7.0083 5.42124,-7.1886 8.89568,-15.5016 11.15867,-19.4107 1.4711,-2.5412 2.52891,-4.9816 4.41278,-8.9904 3.84371,-8.1792 8.47128,-18.4623 8.47128,-18.4623 l 15.02643,-29.735 10.26627,-21.4516 3.78087,-10.9953 6.92464,-20.774 33.817,-131.5571 8.91796,-51.25352 9.10097,-62.12397 4.35263,-46.88974 0.39569,-40.3608 -4.35263,-70.43354 0.59354,-10.0902 c 0,0 0.98924,-4.55048 2.17632,-4.55048 1.18708,0 11.87082,0.19785 11.87082,0.19785 l 11.07943,-0.39569 0.98924,0.79138 v 1.78063 l -10.0902,0.19784 -12.66221,0.19785 c 0,0 -2.57201,3.75909 -2.37416,7.91388 0.19784,4.15479 0.39569,12.06867 0.39569,12.06867 l 2.76986,33.04045 0.98923,13.25576 0.59354,33.43614 -0.79138,23.14811 -1.58278,19.19116 -5.14402,46.88974 -6.92465,45.30697 -9.29881,50.64881 -7.71603,33.634 -12.26652,47.0876 -7.71603,32.2491 -6.28311,24.4511 -15.49001,38.6621 -9.23274,22.3875 -13.11403,24.7001 -11.67297,22.7524 -5.14403,10.0902 -4.10678,7.4122 -0.73344,5.168 1.47682,2.654 6.33111,-0.3957 -34.02969,28.2921 c 0,0 -25.91796,19.389 -36.6017,21.5654 l -12.06867,4.9461 -29.08351,8.5075 c 0,0 -43.7242,4.9461 -55.19932,1.7806 0,0 -43.3285,-5.9354 -52.42947,-9.2988 -9.10096,-3.3634 -40.75648,-19.389 -48.47252,-26.1158 -7.71603,-6.7268 -42.70513,-36.1423 -42.70513,-36.1423 z"
           id="path58562"
           sodipodi:nodetypes="ccccccccccssssccccccccccccsccccccscccccccccccccccccccccccccccssc"
           sodipodi:insensitive="true" />
      </g>
      <g
         id="g76967"
         sodipodi:insensitive="true">
        <path
           style="display:inline;fill:#4c5397;fill-opacity:0.661836;stroke:#000000;stroke-opacity:0"
           d="m 364.85653,1123.109 c 0,0 64.35353,123.6707 74.98585,132.6242 l 7.27474,10.6323 19.58586,8.394 c 0,0 65.47272,12.3111 95.1313,10.6323 l 62.11515,2.798 47.56565,-2.798 55.95959,-5.596 8.95353,-2.798 c 0,0 14.5495,-12.3111 19.02626,-20.705 4.47677,-8.3939 45.32727,-92.3333 45.32727,-92.3333 l 10.63232,-31.897 c 0,0 -40.2909,8.9535 -82.82019,11.1919 -42.52929,2.2384 -163.402,1.1192 -163.402,1.1192 l -102.40605,-3.3576 -71.62828,-9.5131 z"
           id="path58068"
           sodipodi:insensitive="true" />
        <path
           style="display:inline;fill:#4c5397;fill-opacity:0.661836;stroke:#000000;stroke-opacity:0"
           d="m 813.94267,1132.4764 c 0,0 26.5115,-14.6407 31.25983,-19.389 0,0 -67.26799,142.8455 -74.78617,151.5508 -7.51819,8.7053 -11.87083,9.8924 -11.87083,9.8924 0,0 -11.07943,2.7698 -3.56124,-11.4752 7.51819,-14.245 31.25983,-59.3541 31.25983,-59.3541 l 24.92872,-60.5412 z"
           id="path58178"
           sodipodi:insensitive="true" />
      </g>
      <g
         id="g76883"
         style="display:inline"
         sodipodi:insensitive="true">
        <ellipse
           style="display:inline;fill:#3a55bf;fill-opacity:0.202899;stroke:#000000;stroke-opacity:0"
           id="path66583"
           ry="70.648987"
           rx="69.809586"
           cy="888.49841"
           cx="539.03076"
           sodipodi:insensitive="true" />
        <ellipse
           style="fill:#03e5ff;fill-opacity:0.603865;stroke:#000000;stroke-opacity:0"
           id="path66589"
           cx="539.59033"
           cy="889.8974"
           rx="64.213631"
           ry="64.773224"
           sodipodi:insensitive="true" />
        <ellipse
           style="fill:#282dbd;fill-opacity:0.357488;stroke:#000000;stroke-opacity:0"
           id="path66593"
           cx="537.9115"
           cy="890.73669"
           rx="58.897469"
           ry="60.576256"
           sodipodi:insensitive="true" />
        <ellipse
           style="fill:#ededed;fill-opacity:0.743961;stroke:#000000;stroke-opacity:0"
           id="path66600"
           cx="536.0929"
           cy="890.17719"
           rx="52.602016"
           ry="50.783325"
           sodipodi:insensitive="true" />
        <circle
           style="fill:#000000;fill-opacity:0.429952;stroke:#000000;stroke-opacity:0"
           id="path66602"
           cx="534.55402"
           cy="891.29639"
           r="46.026764"
           sodipodi:insensitive="true" />
        <ellipse
           style="fill:#ededed;fill-opacity:0.748792;stroke:#000000;stroke-opacity:0"
           id="path66604"
           cx="536.23279"
           cy="889.89734"
           rx="37.912624"
           ry="37.353024"
           sodipodi:insensitive="true" />
      </g>
      <g
         id="g76959"
         style="display:inline"
         sodipodi:insensitive="true">
        <path
           style="fill:#080a22;fill-opacity:0.362319;stroke:#000000;stroke-opacity:0"
           d="m 643.25549,651.36963 c 0,0 -17.90707,1.11919 -16.78788,17.34747 1.11919,16.22828 8.67374,21.54444 18.18687,24.06262 9.51313,2.51819 83.93938,9.23334 83.93938,9.23334 h 16.22828 c 0,0 17.95446,-0.30157 14.82929,-23.22323 -0.64736,-4.74807 -4.8781,-10.02441 -9.09751,-13.07785 -5.09809,-3.68931 -10.27061,-4.67938 -10.27061,-4.67938 0,0 -88.63388,-12.46095 -97.02782,-9.66297 z"
           id="path54972"
           sodipodi:nodetypes="cssccsscc"
           sodipodi:insensitive="true" />
        <path
           style="display:inline;fill:#1b2236;fill-opacity:0.362319;stroke:#000000;stroke-opacity:0"
           d="m 637.00392,662.71139 c 0,0 -2.15934,5.94729 0.96397,14.19461 1.98167,5.23274 7.68878,6.54295 16.19972,8.03938 25.46161,4.47677 58.19797,5.59596 58.19797,5.59596 l 25.18182,1.95859 c 0,0 14.33268,-0.62201 14.62335,-10.37819 0.1391,-4.66871 4.50301,-14.73657 -15.46275,-19.0006 l -34.97474,-4.47677 -52.88181,-5.03636 c 0,0 -8.41383,1.18708 -11.84753,9.10338 z"
           id="path54970"
           sodipodi:nodetypes="cssccscccc"
           sodipodi:insensitive="true" />
        <path
           style="fill:#96caca;fill-opacity:0.661836;stroke:#000000;stroke-opacity:0"
           d="m 649.13124,668.15751 19.44596,0.27979 0.4197,-8.95353 c 0,0 2.51818,-2.79798 3.63737,0.2798 1.11919,3.07777 1.11919,8.67373 1.11919,8.67373 l 18.18687,1.11919 1.95859,2.09849 2.79798,-1.81869 h 1.11919 l -0.1399,-8.11414 c 0,0 1.81869,-4.47676 3.63737,0.2798 l 0.4197,5.31616 1.39899,4.05707 27.0005,3.91717 c 0,0 3.35758,1.95859 -0.1399,2.65808 l -25.60151,-4.75656 -0.1399,1.53889 c 0,0 -2.09848,0.27979 -3.07778,-2.37829 -0.97929,-2.65808 -2.23838,13.01061 -2.23838,13.01061 h -1.25909 l -1.67879,-10.63232 -1.39899,-0.4197 h -2.79798 l -0.97929,-2.93788 -2.79798,0.4197 -0.5596,1.67879 -12.45101,-2.37829 -1.81868,1.67879 -2.37828,-5.31616 -0.1399,15.10909 -3.35758,0.2798 -0.2798,-11.19192 -17.20757,-0.6995 z"
           id="path56442"
           sodipodi:insensitive="true" />
        <path
           style="display:inline;fill:#ededed;fill-opacity:0.202899;stroke:#000000;stroke-opacity:0"
           d="m 744.69621,660.80907 c 0,0 26.11581,16.61915 19.38901,32.44692 -6.7268,15.82776 -14.24498,7.51818 -14.24498,7.51818 0,0 13.45359,-7.12249 10.28804,-16.22345 -3.16555,-9.10097 -1.58278,-9.10097 -15.43207,-23.74165 z"
           id="path65821"
           sodipodi:insensitive="true" />
      </g>
      <g
         id="g76933"
         style="display:inline"
         sodipodi:insensitive="true">
        <path
           style="display:inline;fill:#101069;fill-opacity:0.173913;stroke:#000000;stroke-opacity:0"
           d="m 896.24704,727.28567 11.87082,-0.39569 c 0,0 21.76317,8.70527 22.95025,35.61247 l 1.97847,14.64068 c 0,0 2.37417,83.49144 0.79139,107.62878 -1.58277,24.13734 -8.30957,94.17518 -8.30957,94.17518 l -10.68374,111.58571 -4.74833,22.9503 -8.30958,35.6124 c 0,0 -13.4536,26.9072 -21.76317,30.4685 -8.30958,3.5612 -18.99331,-14.6407 -18.20193,-60.9369 0.79139,-46.2962 15.82777,-218.42312 15.82777,-218.42312 l 7.51818,-76.36896 -0.79139,-20.97178 0.3957,-40.75649 0.39569,-22.95025 z"
           id="path64458"
           sodipodi:insensitive="true" />
        <path
           style="fill:#0a0a44;fill-opacity:0.396135;stroke:#000000;stroke-opacity:0"
           d="m 888.63829,735.02921 -3.07778,-9.23333 h -9.51313 c 0,0 -2.79798,0.5596 -2.51818,9.79293 0.2798,9.23333 -1.11919,36.65353 -1.11919,36.65353 l -0.2798,26.30101 0.83939,14.82929 10.91212,-0.2798 V 790.9888 l 0.2798,-51.48282 z"
           id="path65703"
           sodipodi:insensitive="true" />
        <path
           style="fill:#060629;fill-opacity:0.202899;stroke:#000000;stroke-opacity:0"
           d="m 892.68579,733.61678 c 0,0 17.41054,7.91388 12.66221,100.50629 -4.74833,92.59241 -14.24499,201.01253 -11.07943,221.58863 3.16555,20.5761 16.61915,55.3972 16.61915,55.3972 l -4.45156,18.103 -4.74833,18.2019 -5.73756,12.7612 -6.92465,10.4859 -7.41926,7.8149 c 0,0 -10.4859,2.4731 -14.44284,-11.673 -3.95694,-14.146 -5.93541,-29.4792 -5.93541,-29.4792 l 2.17632,-48.3736 2.67094,-44.6145 5.63864,-73.69798 13.65144,-146.8025 -0.79139,-42.24034 -0.0989,-42.04249 5.93541,-6.13326 z"
           id="path65761"
           sodipodi:insensitive="true" />
        <path
           style="fill:#060629;fill-opacity:0.202899;stroke:#000000;stroke-opacity:0"
           d="m 931.72717,766.36659 h -8.39393 l 2.51818,51.48282 -3.63738,80.58181 -12.31111,142.69698 -3.35757,50.3636 -4.75657,30.7778 5.31616,4.4767 0.8394,-5.3161 -3.35758,-0.5596 4.47677,-39.1717 13.7101,-170.39698 5.31616,-89.53534 -2.51818,-52.04242 h 6.15555 z"
           id="path65819"
           sodipodi:insensitive="true" />
        <path
           style="display:inline;fill:#000000;fill-opacity:0.536232;stroke:#000000;stroke-opacity:0"
           d="m 880.18811,873.33235 -24.56598,189.89985 7.83434,-24.6222 5.59596,-43.64849 5.24004,-54.94806 z"
           id="path61268"
           sodipodi:nodetypes="cccccc"
           sodipodi:insensitive="true" />
      </g>
      <g
         id="g76979"
         style="display:inline"
         sodipodi:insensitive="true">
        <path
           style="display:inline;fill:#ffffff;fill-opacity:0.362319;stroke:#000000;stroke-opacity:0"
           d="m 399.97491,734.22836 -17.72899,5.98494 c 0,0 20.77792,5.53325 40.99122,2.82309 l 22.69762,-2.14555 c 0,0 -38.84568,-2.14554 -45.95985,-6.66248 z"
           id="path54897"
           sodipodi:insensitive="true" />
        <path
           style="fill:#ffffff;fill-opacity:0.362319;stroke:#000000;stroke-opacity:0"
           d="m 393.64728,748.77664 c 0,0 -34.64642,4.35862 -4.30382,8.51077 30.3426,4.15214 34.49475,9.58187 34.49475,9.58187 0,0 6.37187,-16.44749 13.39858,-16.76689 3.14714,-0.14306 -3.84007,0.74279 -15.18784,0.2436 -5.4024,-0.23765 -11.43221,-0.44058 -16.36535,-0.95077 -6.71105,-0.69407 -12.03632,-0.61858 -12.03632,-0.61858 z"
           id="path54787"
           sodipodi:nodetypes="cscsssc"
           sodipodi:insensitive="true" />
        <path
           style="display:inline;fill:#ffffff;fill-opacity:0.362319;stroke:#000000;stroke-opacity:0"
           d="m 821.40527,667.15182 16.27905,-0.80303 c 0,0 5.83648,-0.29677 6.92464,4.55048 1.08816,4.84725 2.67094,13.55252 2.67094,13.55252 l 3.06663,14.64068 2.37416,9.10097 c 0,0 1.48385,10.88158 1.97847,16.22345 0.49462,5.34187 -0.29677,12.76114 -0.29677,12.76114 0,0 -14.54176,-21.8621 -23.5438,-20.77394 0,0 -0.0122,-34.79779 -9.45332,-49.25227 z"
           id="path54900"
           sodipodi:insensitive="true" />
        <path
           style="fill:#ededed;fill-opacity:0.202899;stroke:#000000;stroke-opacity:0"
           d="m 803.65463,653.29089 c 0,0 18.59762,-8.70527 29.28136,-4.74833 l -26.5115,8.30957 z"
           id="path66525"
           sodipodi:insensitive="true" />
        <path
           style="fill:#ededed;fill-opacity:0.202899;stroke:#000000;stroke-opacity:0"
           d="m 849.95083,672.2842 5.53972,21.76317 5.14402,22.55456 c 0,0 -2.76986,-26.90719 -3.95694,-32.8426 -1.18708,-5.93541 -6.7268,-11.47513 -6.7268,-11.47513 z"
           id="path66527"
           sodipodi:insensitive="true" />
        <path
           style="fill:#ededed;fill-opacity:0.202899;stroke:#000000;stroke-opacity:0"
           d="m 901.3691,736.42821 c 0,0 -7.27475,6.01565 4.89646,13.4303 0,0 5.03636,-6.29546 -4.89646,-13.4303 z"
           id="path66529"
           sodipodi:insensitive="true" />
      </g>
      <g
         id="g77002"
         sodipodi:insensitive="true">
        <path
           style="display:inline;fill:#3a55bf;fill-opacity:0;stroke:#000000;stroke-width:1.9;stroke-dasharray:none;stroke-opacity:1"
           d="m 650.12533,1039.0926 c 0,0 -50.25314,-6.7268 -46.2962,47.0876 l 1.97847,20.1804 c 0,0 2.76986,17.8062 26.5115,21.7632 23.74164,3.9569 108.02448,-1.5828 108.02448,-1.5828 l 31.65552,-3.5613 c 0,0 16.61915,-1.9784 26.11581,-24.533 9.49666,-22.5546 9.10096,-39.9651 9.10096,-39.9651 l -0.79138,-7.5182 c 0,0 -3.95695,-16.2234 -18.99332,-16.2234 -15.03637,0 -137.30584,4.3526 -137.30584,4.3526 z"
           id="path73632"
           sodipodi:insensitive="true" />
        <path
           style="display:inline;fill:#000000;fill-opacity:0.362319;stroke:#000000;stroke-opacity:0"
           d="m 350.69657,737.48487 v 4.47154 l 40.56327,6.38792 c 0,0 31.62018,2.87456 49.50634,1.91637 17.88617,-0.95819 68.6701,0.1597 68.6701,0.1597 h 30.5023 63.08066 l 52.86001,0.1597 39.92447,-0.4791 26.03076,-1.91637 24.59347,-1.75668 22.19801,-2.39547 9.58187,-1.75667 0.3194,-2.39547 c 0,0 -0.47909,-1.11789 -3.67305,-0.47909 -3.19396,0.63879 -27.46804,3.19395 -27.46804,3.19395 l -47.43027,3.51336 -79.36986,0.63879 -100.60967,-0.1597 -88.79203,-0.1597 -21.87861,-0.47909 -18.52496,-1.75668 z"
           id="path53867"
           sodipodi:insensitive="true" />
      </g>
    </g>
  </g>
</svg>
